<?xml version="1.0" standalone="no"?>
<!DOCTYPE svg PUBLIC "-//W3C//DTD SVG 1.1//EN" 
"http://www.w3.org/Graphics/SVG/1.1/DTD/svg11.dtd">

<svg width="100%" height="100%" version="1.1"
xmlns="http://www.w3.org/2000/svg">

<rect x="20" y="20" width="250" height="250"
style="fill:blue;stroke:pink;stroke-width:5;
fill-opacity:0.1;stroke-opacity:0.9"/>

<rect x="20" y="40" rx="20" ry="20" width="250"
height="100" style="fill:red;stroke:black;
stroke-width:5;opacity:0.5"/>
<circle cx="340" cy="50" r="40" stroke="black"
stroke-width="2" fill="red"/>

<ellipse cx="240" cy="100" rx="220" ry="30"
style="fill:purple"/>

<ellipse cx="220" cy="70" rx="190" ry="20"
style="fill:lime"/>

<ellipse cx="210" cy="45" rx="170" ry="15"
style="fill:yellow"/>

<ellipse cx="440" cy="100" rx="220" ry="30"
style="fill:yellow"/>

<ellipse cx="420" cy="100" rx="190" ry="20"
style="fill:white"/>

<line x1="0" y1="0" x2="300" y2="300"
style="stroke:rgb(99,99,99);stroke-width:2"/>

<polygon points="220,100 300,210 170,250"
style="fill:#cccccc;
stroke:#000000;stroke-width:1"/>

<polygon points="220,100 300,210 170,250 123,234"
style="fill:#cccccc;
stroke:#000000;stroke-width:1"/>

<polyline points="0,0 0,20 20,20 20,40 40,40 40,60"
style="fill:white;stroke:red;stroke-width:2"/>
<path d="M250 150 L150 350 L350 350 Z" />
</svg>